<svg xmlns="http://www.w3.org/2000/svg" width="18.655" height="22.983" viewBox="0 0 18.655 22.983">
  <g id="test" transform="translate(-48.2)">
    <path id="Path_11000" data-name="Path 11000" d="M66.658,5.967,60.889.2a.673.673,0,0,0-.476-.2H50.676A2.479,2.479,0,0,0,48.2,2.476v18.03a2.479,2.479,0,0,0,2.476,2.476h13.7a2.479,2.479,0,0,0,2.476-2.476V6.443a.673.673,0,0,0-.2-.476ZM61.086,2.3,64.557,5.77H62.216a1.131,1.131,0,0,1-1.13-1.13Zm3.293,19.337h-13.7a1.131,1.131,0,0,1-1.13-1.13V2.476a1.131,1.131,0,0,1,1.13-1.13h9.063V4.64a2.479,2.479,0,0,0,2.476,2.476h3.293v13.39A1.131,1.131,0,0,1,64.379,21.636Z" fill="#fff"/>
    <path id="Path_11001" data-name="Path 11001" d="M116.024,224.933h-2.885a.673.673,0,0,0-.673.673v2.885a.673.673,0,0,0,.673.673h2.885a.673.673,0,0,0,.673-.673v-2.885A.673.673,0,0,0,116.024,224.933Zm-.673,2.885h-1.538V226.28h1.538Z" transform="translate(-61.381 -214.836)" fill="#fff"/>
    <path id="Path_11002" data-name="Path 11002" d="M116.024,353.467h-2.885a.673.673,0,0,0-.673.673v2.885a.673.673,0,0,0,.673.673h2.885a.673.673,0,0,0,.673-.673V354.14A.673.673,0,0,0,116.024,353.467Zm-.673,2.885h-1.538v-1.538h1.538Z" transform="translate(-61.381 -337.601)" fill="#fff"/>
    <path id="Path_11003" data-name="Path 11003" d="M241,225.606a.673.673,0,0,0,.673.673h2.885a.673.673,0,0,0,0-1.347h-2.885A.673.673,0,0,0,241,225.606Z" transform="translate(-184.146 -214.836)" fill="#fff"/>
    <path id="Path_11004" data-name="Path 11004" d="M247.443,289.2h-5.77a.673.673,0,1,0,0,1.347h5.77a.673.673,0,1,0,0-1.347Z" transform="translate(-184.146 -276.218)" fill="#fff"/>
    <path id="Path_11005" data-name="Path 11005" d="M241.673,354.814h2.885a.673.673,0,1,0,0-1.347h-2.885a.673.673,0,1,0,0,1.347Z" transform="translate(-184.146 -337.601)" fill="#fff"/>
    <path id="Path_11006" data-name="Path 11006" d="M247.443,417.733h-5.77a.673.673,0,1,0,0,1.347h5.77a.673.673,0,1,0,0-1.347Z" transform="translate(-184.146 -398.982)" fill="#fff"/>
    <path id="Path_11007" data-name="Path 11007" d="M113.14,81.68h3.606a.673.673,0,1,0,0-1.347H113.14a.673.673,0,0,0,0,1.347Z" transform="translate(-61.382 -76.727)" fill="#fff"/>
    <path id="Path_11008" data-name="Path 11008" d="M113.14,145.947h5.77a.673.673,0,0,0,0-1.347h-5.77a.673.673,0,0,0,0,1.347Z" transform="translate(-61.382 -138.109)" fill="#fff"/>
  </g>
</svg>
