<svg xmlns="http://www.w3.org/2000/svg" width="20.508" height="20.508" viewBox="0 0 20.508 20.508">
  <g id="analytics" transform="translate(0.25 0.25)">
    <g id="Group_15949" data-name="Group 15949" transform="translate(0 19.174)">
      <g id="Group_15948" data-name="Group 15948">
        <path id="Path_10985" data-name="Path 10985" d="M19.591,490.667H.417a.417.417,0,1,0,0,.834H19.591a.417.417,0,1,0,0-.834Z" transform="translate(0 -490.667)" fill="#fff" stroke="#fff" stroke-width="0.5"/>
      </g>
    </g>
    <g id="Group_15951" data-name="Group 15951" transform="translate(0.834 14.172)">
      <g id="Group_15950" data-name="Group 15950">
        <path id="Path_10986" data-name="Path 10986" d="M24.251,362.667h-2.5a.417.417,0,0,0-.417.417v5a.417.417,0,0,0,.417.417h2.5a.417.417,0,0,0,.417-.417v-5A.417.417,0,0,0,24.251,362.667Zm-.417,5H22.167V363.5h1.667v4.168Z" transform="translate(-21.333 -362.667)" fill="#fff" stroke="#fff" stroke-width="0.5"/>
      </g>
    </g>
    <g id="Group_15953" data-name="Group 15953" transform="translate(5.836 10.004)">
      <g id="Group_15952" data-name="Group 15952">
        <path id="Path_10987" data-name="Path 10987" d="M152.251,256h-2.5a.417.417,0,0,0-.417.417v9.17a.417.417,0,0,0,.417.417h2.5a.417.417,0,0,0,.417-.417v-9.17A.417.417,0,0,0,152.251,256Zm-.417,9.17h-1.667v-8.337h1.667Z" transform="translate(-149.333 -256)" fill="#fff" stroke="#fff" stroke-width="0.5"/>
      </g>
    </g>
    <g id="Group_15955" data-name="Group 15955" transform="translate(10.837 11.671)">
      <g id="Group_15954" data-name="Group 15954">
        <path id="Path_10988" data-name="Path 10988" d="M280.251,298.667h-2.5a.417.417,0,0,0-.417.417v7.5a.417.417,0,0,0,.417.417h2.5a.417.417,0,0,0,.417-.417v-7.5A.417.417,0,0,0,280.251,298.667Zm-.417,7.5h-1.667V299.5h1.667Z" transform="translate(-277.333 -298.667)" fill="#fff" stroke="#fff" stroke-width="0.5"/>
      </g>
    </g>
    <g id="Group_15957" data-name="Group 15957" transform="translate(15.839 6.669)">
      <g id="Group_15956" data-name="Group 15956">
        <path id="Path_10989" data-name="Path 10989" d="M408.251,170.667h-2.5a.417.417,0,0,0-.417.417v12.5a.417.417,0,0,0,.417.417h2.5a.417.417,0,0,0,.417-.417v-12.5A.417.417,0,0,0,408.251,170.667Zm-.417,12.5h-1.667V171.5h1.667Z" transform="translate(-405.333 -170.667)" fill="#fff" stroke="#fff" stroke-width="0.5"/>
      </g>
    </g>
    <g id="Group_15959" data-name="Group 15959" transform="translate(0.834 7.503)">
      <g id="Group_15958" data-name="Group 15958">
        <path id="Path_10990" data-name="Path 10990" d="M23,192a1.667,1.667,0,1,0,1.667,1.667A1.669,1.669,0,0,0,23,192Zm0,2.5a.834.834,0,1,1,.834-.834A.834.834,0,0,1,23,194.5Z" transform="translate(-21.333 -192)" fill="#fff" stroke="#fff" stroke-width="0.5"/>
      </g>
    </g>
    <g id="Group_15961" data-name="Group 15961" transform="translate(5.836 3.335)">
      <g id="Group_15960" data-name="Group 15960">
        <path id="Path_10991" data-name="Path 10991" d="M151,85.333A1.667,1.667,0,1,0,152.668,87,1.669,1.669,0,0,0,151,85.333Zm0,2.5a.834.834,0,1,1,.834-.834A.834.834,0,0,1,151,87.834Z" transform="translate(-149.333 -85.333)" fill="#fff" stroke="#fff" stroke-width="0.5"/>
      </g>
    </g>
    <g id="Group_15963" data-name="Group 15963" transform="translate(10.837 5.002)">
      <g id="Group_15962" data-name="Group 15962">
        <path id="Path_10992" data-name="Path 10992" d="M279,128a1.667,1.667,0,1,0,1.667,1.667A1.669,1.669,0,0,0,279,128Zm0,2.5a.834.834,0,1,1,.834-.834A.834.834,0,0,1,279,130.5Z" transform="translate(-277.333 -128)" fill="#fff" stroke="#fff" stroke-width="0.5"/>
      </g>
    </g>
    <g id="Group_15965" data-name="Group 15965" transform="translate(15.839)">
      <g id="Group_15964" data-name="Group 15964">
        <path id="Path_10993" data-name="Path 10993" d="M407,0a1.667,1.667,0,1,0,1.667,1.667A1.669,1.669,0,0,0,407,0Zm0,2.5a.834.834,0,1,1,.834-.834A.835.835,0,0,1,407,2.5Z" transform="translate(-405.333)" fill="#fff" stroke="#fff" stroke-width="0.5"/>
      </g>
    </g>
    <g id="Group_15967" data-name="Group 15967" transform="translate(12.972 2.134)">
      <g id="Group_15966" data-name="Group 15966">
        <path id="Path_10994" data-name="Path 10994" d="M335.909,54.73a.417.417,0,0,0-.589,0l-3.235,3.235a.417.417,0,0,0,.589.589l3.235-3.235A.417.417,0,0,0,335.909,54.73Z" transform="translate(-331.963 -54.608)" fill="#fff" stroke="#fff" stroke-width="0.5"/>
      </g>
    </g>
    <g id="Group_15969" data-name="Group 15969" transform="translate(8.289 4.927)">
      <g id="Group_15968" data-name="Group 15968">
        <path id="Path_10995" data-name="Path 10995" d="M215.316,126.858l-2.678-.764a.417.417,0,0,0-.228.8l2.678.764a.417.417,0,0,0,.228-.8Z" transform="translate(-212.108 -126.078)" fill="#fff" stroke="#fff" stroke-width="0.5"/>
      </g>
    </g>
    <g id="Group_15971" data-name="Group 15971" transform="translate(2.967 5.364)">
      <g id="Group_15970" data-name="Group 15970">
        <path id="Path_10996" data-name="Path 10996" d="M79.82,137.43a.417.417,0,0,0-.585-.067l-3.143,2.506a.417.417,0,0,0,.26.743.421.421,0,0,0,.259-.09l3.143-2.506A.416.416,0,0,0,79.82,137.43Z" transform="translate(-75.935 -137.273)" fill="#fff" stroke="#fff" stroke-width="0.5"/>
      </g>
    </g>
  </g>
</svg>
