<svg xmlns="http://www.w3.org/2000/svg" width="13.936" height="20.3" viewBox="0 0 13.936 20.3">
  <g id="check-audit" transform="translate(-4.35 -0.85)">
    <path id="Path_15723" data-name="Path 15723" d="M4.5,6.237A2.255,2.255,0,0,1,6.773,4h.909v.895H6.773A1.353,1.353,0,0,0,5.409,6.237V18.763a1.353,1.353,0,0,0,1.364,1.342h9.091a1.353,1.353,0,0,0,1.364-1.342V6.237a1.353,1.353,0,0,0-1.364-1.342h-.909V4h.909a2.255,2.255,0,0,1,2.273,2.237V18.763A2.255,2.255,0,0,1,15.864,21H6.773A2.255,2.255,0,0,1,4.5,18.763Z" fill="#4b9cd3" stroke="#4b9cd3" stroke-width="0.3"/>
    <path id="Path_15724" data-name="Path 15724" d="M11.318,2a1.227,1.227,0,0,0-1.273,1.167.467.467,0,0,1-.424.5,1.4,1.4,0,0,0-1.273,1.5V6h5.939V5.167a1.4,1.4,0,0,0-1.273-1.5.467.467,0,0,1-.424-.5A1.227,1.227,0,0,0,11.318,2Zm-2.075.706a2.115,2.115,0,0,1,4.15,0,2.424,2.424,0,0,1,1.743,2.46V6.5a.467.467,0,0,1-.424.5H7.924A.467.467,0,0,1,7.5,6.5V5.167A2.424,2.424,0,0,1,9.243,2.706Zm4.9,8.918a.564.564,0,0,1,.039.706l-2.98,4a.4.4,0,0,1-.3.17.392.392,0,0,1-.314-.146L8.473,13.87a.565.565,0,0,1,0-.707.38.38,0,0,1,.6,0l1.791,2.107,2.681-3.6A.381.381,0,0,1,14.144,11.624Z" fill="#4b9cd3" stroke="#4b9cd3" stroke-width="0.3"/>
  </g>
</svg>
