<svg xmlns="http://www.w3.org/2000/svg" width="50" height="50" viewBox="0 0 50 50">
  <g id="Group_16059" data-name="Group 16059" transform="translate(-348.62 -173.679)">
    <rect id="Rectangle_4785" data-name="Rectangle 4785" width="50" height="50" rx="4.38" transform="translate(348.62 173.679)" fill="#f47e28"/>
    <path id="Path_11890" data-name="Path 11890" d="M444.068,107.916v2.008a3.259,3.259,0,0,1,0,1.033h0a4.073,4.073,0,0,1-.574.8l-4.475,4.533v.344a1.778,1.778,0,0,0,0,.574,1.618,1.618,0,0,0,0,.516v.344l4.475,4.533a2.293,2.293,0,0,1,.574.861,3.259,3.259,0,0,1,0,1.033v2.008h.631a.746.746,0,0,1,.746.746v2.7a.746.746,0,0,1-.746.746H427.486a.746.746,0,0,1-.746-.746v-2.7a.746.746,0,0,1,.746-.746h.746V124.5a3.268,3.268,0,0,1,0-1.033,2.3,2.3,0,0,1,.574-.861l4.476-4.533v-.344h0a1.611,1.611,0,0,0,0-.516,1.78,1.78,0,0,0,0-.574v-.344l-4.476-4.533a2.3,2.3,0,0,1-.574-.861,3.268,3.268,0,0,1,0-1.033v-2.008H427.6a.746.746,0,0,1-.746-.746v-2.7a.746.746,0,0,1,.746-.746h17.214a.746.746,0,0,1,.746.746v2.7a.746.746,0,0,1-.746.746Z" transform="translate(-62.455 81.599)" fill="#2c3e50"/>
    <path id="Path_11891" data-name="Path 11891" d="M442.637,107.92H427.03v1.262h15.607Z" transform="translate(-61.081 101.735)" fill="#4b9cd3"/>
    <path id="Path_11892" data-name="Path 11892" d="M435.2,112.114v-1.607l-3.73-3.787-3.73,3.787v1.607Z" transform="translate(-57.717 96.05)" fill="#dec400"/>
    <path id="Path_11893" data-name="Path 11893" d="M442.637,103.93H427.03v1.32h15.607Z" transform="translate(-61.081 82.831)" fill="#4b9cd3"/>
    <path id="Path_11894" data-name="Path 11894" d="M428.836,123.058v-1.893a.588.588,0,0,1,0-.516l4.3-4.533a.658.658,0,0,1,.95,0c1.508,1.492,2.96,3.041,4.412,4.533a.945.945,0,0,1,0,.516h0v1.893h1.229V121.05a1.733,1.733,0,0,0,0-.516.772.772,0,0,0,0-.4l-4.3-4.476a1.781,1.781,0,0,1-.558-.861,2.646,2.646,0,0,1,0-2.123,1.781,1.781,0,0,1,.558-.861l4.3-4.476a.947.947,0,0,0,0-.4h0a1.733,1.733,0,0,0,0-.516V104.41H427.216v2.008a1.713,1.713,0,0,0,0,.516,1.468,1.468,0,0,0,0,.4l4.3,4.476a1.782,1.782,0,0,1,.559.861,2.412,2.412,0,0,1,0,1.09,2.3,2.3,0,0,1,0,1.033,1.781,1.781,0,0,1-.558.861l-4.3,4.476a1.468,1.468,0,0,0,0,.4,1.713,1.713,0,0,0,0,.516v2.008Z" transform="translate(-59.947 85.105)" fill="#e6eef0"/>
  </g>
</svg>
