<svg id="calendar_2_" data-name="calendar (2)" xmlns="http://www.w3.org/2000/svg" width="17.52" height="17.513" viewBox="0 0 17.52 17.513">
  <path id="Path_10937" data-name="Path 10937" d="M14.138,1.459h-.654V.8a.684.684,0,1,0-1.368,0v.661H5.4V.8A.684.684,0,0,0,4.036.8v.661H3.383A3.386,3.386,0,0,0,0,4.842v9.4a3.386,3.386,0,0,0,3.383,3.383H14.138a3.386,3.386,0,0,0,3.383-3.383v-9.4a3.386,3.386,0,0,0-3.383-3.383ZM3.383,2.828h.653V4.162a.684.684,0,0,0,1.368,0V2.828h6.712V4.162a.684.684,0,1,0,1.368,0V2.828h.654a2.017,2.017,0,0,1,2.014,2.014V5.5H1.368V4.842A2.017,2.017,0,0,1,3.383,2.828ZM14.138,16.259H3.383a2.017,2.017,0,0,1-2.014-2.014V6.864H16.152v7.38a2.017,2.017,0,0,1-2.014,2.014Zm-8.061-6.7a.684.684,0,0,1-.684.684H4.048a.684.684,0,0,1,0-1.368H5.393A.684.684,0,0,1,6.077,9.554Zm8.08,0a.684.684,0,0,1-.684.684H12.128a.684.684,0,0,1,0-1.368h1.345A.684.684,0,0,1,14.157,9.554Zm-4.044,0a.684.684,0,0,1-.684.684H8.084a.684.684,0,1,1,0-1.368H9.429A.684.684,0,0,1,10.113,9.554ZM6.077,13.591a.684.684,0,0,1-.684.684H4.048a.684.684,0,0,1,0-1.368H5.393A.684.684,0,0,1,6.077,13.591Zm8.08,0a.684.684,0,0,1-.684.684H12.128a.684.684,0,0,1,0-1.368h1.345A.684.684,0,0,1,14.157,13.591Zm-4.044,0a.684.684,0,0,1-.684.684H8.084a.684.684,0,0,1,0-1.368H9.429A.684.684,0,0,1,10.113,13.591Z" transform="translate(0 -0.114)" fill="#afacc5"/>
</svg>
