<svg xmlns="http://www.w3.org/2000/svg" width="45" height="45" viewBox="0 0 45 45">
  <g id="Group_16141" data-name="Group 16141" transform="translate(-889 -1012)">
    <g id="Group_16110" data-name="Group 16110" transform="translate(424 988)">
      <rect id="Rectangle_3986" data-name="Rectangle 3986" width="45" height="45" rx="4" transform="translate(465 24)" fill="#4b9cd3"/>
    </g>
    <g id="_1" data-name="1" transform="translate(844.132 921.711)">
      <path id="Path_15728" data-name="Path 15728" d="M60.406,154.111a6.254,6.254,0,0,1-4.425-10.675l4.237-4.237a6.264,6.264,0,0,1,8.848,0h0a6.264,6.264,0,0,1,0,8.849l-4.237,4.237A6.237,6.237,0,0,1,60.406,154.111Zm4.237-14.781a4.276,4.276,0,0,0-3.036,1.256l-4.237,4.237a4.292,4.292,0,0,0,6.071,6.069l4.237-4.237a4.29,4.29,0,0,0-3.035-7.325Z" transform="translate(0 -31.836)" fill="#fff"/>
      <path id="Path_15729" data-name="Path 15729" d="M206.7,120.161a6.222,6.222,0,0,1-1.58-.2.982.982,0,0,1,.5-1.9,4.291,4.291,0,0,0,4.118-1.119l4.237-4.237a4.292,4.292,0,0,0-6.07-6.07l-4.237,4.237a4.312,4.312,0,0,0-1.119,4.119.982.982,0,0,1-1.9.494,6.282,6.282,0,0,1,1.631-6l4.237-4.237a6.257,6.257,0,1,1,8.846,8.845l-4.237,4.237A6.217,6.217,0,0,1,206.7,120.161Z" transform="translate(-136.712 0)" fill="#fff"/>
    </g>
  </g>
</svg>
