<svg xmlns="http://www.w3.org/2000/svg" width="19.009" height="19" viewBox="0 0 19.009 19">
  <g id="Group_16078" data-name="Group 16078" transform="translate(-1.987 -2)">
    <g id="Group_16078-2" data-name="Group 16078" transform="translate(1.987 2)">
      <path id="Path_15726" data-name="Path 15726" d="M11.5,21A9.5,9.5,0,0,1,3.046,7.154a.679.679,0,0,1,1.207.621A8.157,8.157,0,1,0,5.738,5.742a.678.678,0,0,1-.96-.96A9.5,9.5,0,1,1,18.213,18.217,9.433,9.433,0,0,1,11.5,21Z" transform="translate(-1.987 -2)" fill="#afacc5"/>
    </g>
    <g id="Group_16079" data-name="Group 16079" transform="translate(10.817 5.393)">
      <path id="Path_15727" data-name="Path 15727" d="M19.071,16.5a.674.674,0,0,1-.423-.149l-3.393-2.714a.679.679,0,0,1-.254-.53V7.679a.679.679,0,0,1,1.357,0v5.1l3.138,2.51a.679.679,0,0,1-.425,1.209Z" transform="translate(-15 -7)" fill="#afacc5"/>
    </g>
  </g>
</svg>
