<svg xmlns="http://www.w3.org/2000/svg" width="50" height="50" viewBox="0 0 50 50">
  <g id="Group_16299" data-name="Group 16299" transform="translate(-706.174 -180)">
    <g id="Group_16062" data-name="Group 16062" transform="translate(363 -86.5)">
      <rect id="Rectangle_5269" data-name="Rectangle 5269" width="50" height="50" rx="4.38" transform="translate(343.174 266.5)" fill="#4b9cd3"/>
    </g>
    <g id="Group_16298" data-name="Group 16298" transform="translate(0.896 1.102)">
      <g id="Group_16066" data-name="Group 16066" transform="translate(717.5 189)">
        <g id="Medical_document" data-name="Medical document" transform="translate(0)">
          <path id="Path_15737" data-name="Path 15737" d="M35.786,7.391h0L30.567,2.171h0A.522.522,0,0,0,30.18,2H15.514A1.461,1.461,0,0,0,14,3.393V27.747a1.461,1.461,0,0,0,1.514,1.394H34.408A1.5,1.5,0,0,0,35.864,28.1a.522.522,0,0,0,.057-.209V7.74A.522.522,0,0,0,35.786,7.391Z" transform="translate(-10.868 -1.998)" fill="#fff"/>
          <path id="Path_15730" data-name="Path 15730" d="M35.786,7.391h0L30.567,2.171h0A.522.522,0,0,0,30.18,2H15.514A1.461,1.461,0,0,0,14,3.393V27.747a1.461,1.461,0,0,0,1.514,1.394H34.408A1.5,1.5,0,0,0,35.864,28.1a.522.522,0,0,0,.057-.209V7.74A.522.522,0,0,0,35.786,7.391ZM30.7,3.779l3.44,3.44H31.224a.522.522,0,0,1-.522-.454Zm4.176,23.968c0,.188-.219.35-.47.35H15.514c-.251,0-.47-.162-.47-.35V3.393c0-.188.219-.35.47-.35H29.658V6.764a1.535,1.535,0,0,0,1.566,1.5h3.654Z" transform="translate(-10.868 -1.998)"/>
          <path id="Path_15731" data-name="Path 15731" d="M38.922,8.85H36a.522.522,0,0,1-.522-.454V5.41ZM35.431,27.118a.522.522,0,0,1-.522.522H24.574a.522.522,0,1,1,0-1.044H34.909A.522.522,0,0,1,35.431,27.118Zm0-2.61a.522.522,0,0,1-.522.522H24.574a.522.522,0,1,1,0-1.044H34.909A.522.522,0,0,1,35.431,24.508Zm0-2.61a.522.522,0,0,1-.522.522H24.574a.522.522,0,1,1,0-1.044H34.909A.522.522,0,0,1,35.431,21.9ZM29.741,7.806a5.741,5.741,0,1,0,5.741,5.741A5.741,5.741,0,0,0,29.741,7.806Z" transform="translate(-15.649 -3.629)" fill="#4b9cd3"/>
          <path id="Path_15732" data-name="Path 15732" d="M28.79,33.444v2.088a.522.522,0,0,1-.522.522H10.522A.522.522,0,0,1,10,35.531V11.522A.522.522,0,0,1,10.522,11h1.566V32.05A1.461,1.461,0,0,0,13.6,33.444Z" transform="translate(-8.956 -6.301)" fill="#ffd55e"/>
          <path id="Path_15733" data-name="Path 15733" d="M28.878,31.966v2.61a1.566,1.566,0,0,1-1.566,1.566H9.566A1.566,1.566,0,0,1,8,34.575V10.566A1.566,1.566,0,0,1,9.566,9h2.088a.522.522,0,0,1,0,1.044H9.566a.522.522,0,0,0-.522.522V34.575a.522.522,0,0,0,.522.522H27.312a.522.522,0,0,0,.522-.522v-2.61a.522.522,0,0,1,1.044,0Z" transform="translate(-8 -5.345)"/>
          <path id="Path_15738" data-name="Path 15738" d="M38.922,8.85H36a.522.522,0,0,1-.522-.454V5.41Z" transform="translate(-15.649 -3.629)" fill="#fff"/>
        </g>
        <circle id="Ellipse_417" data-name="Ellipse 417" cx="3.132" cy="3.132" r="3.132" transform="translate(10.961 6.785)" fill="#fff"/>
      </g>
    </g>
  </g>
</svg>
