<svg xmlns="http://www.w3.org/2000/svg" width="26.68" height="26.68" viewBox="0 0 26.68 26.68">
  <path id="data-storage" d="M24.336,21.99a2.349,2.349,0,0,0-2.211,1.563H15.551a2.356,2.356,0,0,0-1.429-1.429V20.363a19.886,19.886,0,0,0,4.97-.708c1.261-.378,2.847-1.091,2.847-2.407V3.126c0-1.316-1.586-2.029-2.847-2.407A20.857,20.857,0,0,0,13.341,0,20.857,20.857,0,0,0,7.589.72C6.328,1.1,4.742,1.811,4.742,3.126V17.248a1.9,1.9,0,0,0,.944,1.55,6.606,6.606,0,0,0,1.9.857,19.888,19.888,0,0,0,4.97.708v1.761a2.356,2.356,0,0,0-1.429,1.429H4.556a2.345,2.345,0,1,0,0,1.563H11.13a2.345,2.345,0,0,0,4.421,0h6.574a2.345,2.345,0,1,0,2.211-3.127ZM6.306,9.731a8.249,8.249,0,0,0,1.283.492,20.857,20.857,0,0,0,5.752.72,20.857,20.857,0,0,0,5.752-.72,8.248,8.248,0,0,0,1.283-.492V12.5c-.035.107-.452.565-1.936.977a19.867,19.867,0,0,1-5.1.595,19.867,19.867,0,0,1-5.1-.595c-1.484-.412-1.9-.869-1.936-.977Zm0-4.69a8.249,8.249,0,0,0,1.283.492,20.857,20.857,0,0,0,5.752.72,20.857,20.857,0,0,0,5.752-.72,8.248,8.248,0,0,0,1.283-.492V7.808c-.035.107-.452.565-1.936.977a19.867,19.867,0,0,1-5.1.595,19.867,19.867,0,0,1-5.1-.595c-1.484-.412-1.9-.869-1.936-.977ZM8.242,2.158a19.867,19.867,0,0,1,5.1-.595,19.867,19.867,0,0,1,5.1.595c1.447.4,1.88.847,1.933.968-.053.121-.486.566-1.933.968a19.867,19.867,0,0,1-5.1.595,19.867,19.867,0,0,1-5.1-.595c-1.447-.4-1.88-.847-1.933-.968.053-.121.486-.566,1.933-.968ZM6.306,17.24V14.421a8.249,8.249,0,0,0,1.283.492,20.857,20.857,0,0,0,5.752.72,20.857,20.857,0,0,0,5.752-.72,8.248,8.248,0,0,0,1.283-.492V17.24c-.035.107-.452.565-1.936.977a19.867,19.867,0,0,1-5.1.595,19.867,19.867,0,0,1-5.1-.595C6.758,17.8,6.341,17.347,6.306,17.24Zm-3.96,7.877a.782.782,0,1,1,.782-.782A.783.783,0,0,1,2.345,25.117Zm11,0a.782.782,0,1,1,.782-.782A.783.783,0,0,1,13.341,25.117Zm11,0a.782.782,0,1,1,.782-.782A.783.783,0,0,1,24.336,25.117Zm0,0" transform="translate(0 0)" fill="#fff"/>
</svg>
