<svg xmlns="http://www.w3.org/2000/svg" width="45" height="45" viewBox="0 0 45 45">
  <g id="Group_16097" data-name="Group 16097" transform="translate(-825 -448)">
    <rect id="Rectangle_5276" data-name="Rectangle 5276" width="45" height="45" rx="4" transform="translate(825 448)" fill="#df8a8d"/>
    <g id="Group_16096" data-name="Group 16096" transform="translate(838.625 461)">
      <path id="Path_4112" data-name="Path 4112" d="M-3764,417.169h6.834" transform="translate(3769.3 -417.169)" fill="none" stroke="#fff" stroke-linecap="round" stroke-width="1.5"/>
      <path id="Path_4113" data-name="Path 4113" d="M-3764,417.169h17.259" transform="translate(3764.001 -414.157)" fill="none" stroke="#fff" stroke-linecap="round" stroke-width="1.5"/>
      <g id="Rectangle_542" data-name="Rectangle 542" transform="translate(1.455 2.577)" fill="none" stroke="#fff" stroke-width="1.5">
        <path d="M0,0H14.523a0,0,0,0,1,0,0V14.411a3,3,0,0,1-3,3H3a3,3,0,0,1-3-3V0A0,0,0,0,1,0,0Z" stroke="none"/>
        <path d="M1.5.75H13.023a.75.75,0,0,1,.75.75V14.411a2.25,2.25,0,0,1-2.25,2.25H3a2.25,2.25,0,0,1-2.25-2.25V1.5A.75.75,0,0,1,1.5.75Z" fill="none"/>
      </g>
      <g id="Group_1999" data-name="Group 1999" transform="translate(5.726 6.853)">
        <path id="Path_4114" data-name="Path 4114" d="M-3741.77,556.095v8.181" transform="translate(3741.77 -556.095)" fill="none" stroke="#fff" stroke-linecap="round" stroke-width="1.5"/>
        <path id="Path_4115" data-name="Path 4115" d="M-3741.77,556.095v8.181" transform="translate(3747.111 -556.095)" fill="none" stroke="#fff" stroke-linecap="round" stroke-width="1.5"/>
      </g>
    </g>
  </g>
</svg>
