<svg xmlns="http://www.w3.org/2000/svg" width="16.638" height="22.184" viewBox="0 0 16.638 22.184">
  <g id="Group_16351" data-name="Group 16351" transform="translate(-1354.362 -689)">
    <path id="Path_15737" data-name="Path 15737" d="M12.773,9.546A2.773,2.773,0,1,0,10,6.773,2.781,2.781,0,0,0,12.773,9.546Zm0,2.773a2.773,2.773,0,1,0,2.773,2.773A2.781,2.781,0,0,0,12.773,12.319Zm0,8.319a2.773,2.773,0,1,0,2.773,2.773A2.781,2.781,0,0,0,12.773,20.638Z" transform="translate(1344.362 685)" fill="#97969f"/>
    <path id="Path_15736" data-name="Path 15736" d="M12.773,9.546A2.773,2.773,0,1,0,10,6.773,2.781,2.781,0,0,0,12.773,9.546Zm0,2.773a2.773,2.773,0,1,0,2.773,2.773A2.781,2.781,0,0,0,12.773,12.319Zm0,8.319a2.773,2.773,0,1,0,2.773,2.773A2.781,2.781,0,0,0,12.773,20.638Z" transform="translate(1355.454 685)" fill="#97969f"/>
  </g>
</svg>
