<svg xmlns="http://www.w3.org/2000/svg" width="24.083" height="24.083" viewBox="0 0 24.083 24.083">
  <g id="XMLID_2019_" transform="translate(0.375 0.375)">
    <g id="XMLID_1056_" transform="translate(0 0)">
      <path id="XMLID_1322_" d="M23.2,7.607,20.873,5.28V.456A.456.456,0,0,0,20.417,0H13.7a.456.456,0,0,0,0,.911h6.258V10.2l-8.315,8.315L3.372,10.243V.911H9.6A.456.456,0,1,0,9.6,0H2.917a.456.456,0,0,0-.456.456V5.28L.133,7.607A.456.456,0,0,0,0,7.93V21.055a2.281,2.281,0,0,0,2.279,2.279H21.055a2.281,2.281,0,0,0,2.279-2.279V7.93A.456.456,0,0,0,23.2,7.607Zm-.778,13.447a1.359,1.359,0,0,1-.134.589l-6.24-6.24L22.422,9.03ZM20.873,6.569,22.233,7.93,20.873,9.29ZM1.045,21.644a1.359,1.359,0,0,1-.134-.589V9.071l6.353,6.353ZM2.461,9.331,1.08,7.95,2.461,6.569ZM2.279,22.422a1.359,1.359,0,0,1-.589-.134l6.22-6.22,3.415,3.415a.456.456,0,0,0,.644,0L15.4,16.048l6.24,6.24a1.359,1.359,0,0,1-.589.134H2.279Z" transform="translate(0 0)" fill="#afacc5" stroke="#afacc5" stroke-width="0.75"/>
      <path id="XMLID_1377_" d="M246.136.911a.456.456,0,0,0,.456-.456.456.456,0,1,0-.456.456Z" transform="translate(-234.484 0)" fill="#afacc5" stroke="#afacc5" stroke-width="0.75"/>
      <path id="XMLID_1555_" d="M148.416,67.229a4.951,4.951,0,0,0,1.289,6.3,5,5,0,0,0,2.915,1.049h.013a.456.456,0,0,0,.012-.911,4.051,4.051,0,0,1-1.118-7.91,4.051,4.051,0,0,1,5.106,2.682,3.549,3.549,0,0,1-.218,2.362,1.244,1.244,0,0,1-1.146.846.472.472,0,0,1-.329-.151.716.716,0,0,1-.2-.508V67.223a.456.456,0,1,0-.911,0v.145a1.99,1.99,0,0,0-1.293-.466,2.488,2.488,0,0,0-2.342,2.668,3.053,3.053,0,0,0,.657,1.941,2.14,2.14,0,0,0,1.637.823,2.013,2.013,0,0,0,1.481-.674,1.6,1.6,0,0,0,.328.483,1.375,1.375,0,0,0,.976.419,2.155,2.155,0,0,0,1.993-1.421,4.445,4.445,0,0,0,.25-2.941l0-.014a4.956,4.956,0,0,0-9.093-.955Zm4.069,4.192c-.762,0-1.382-.831-1.382-1.852a1.594,1.594,0,0,1,1.43-1.756c.757,0,1.286.716,1.286,1.742S153.221,71.421,152.485,71.421Z" transform="translate(-141.06 -61.707)" fill="#afacc5" stroke="#afacc5" stroke-width="0.75"/>
    </g>
  </g>
</svg>
