<svg xmlns="http://www.w3.org/2000/svg" width="25.12" height="13.477" viewBox="0 0 25.12 13.477">
  <g id="Group_16034" data-name="Group 16034" transform="translate(-935 -36.865)">
    <g id="eye" transform="translate(935 29)">
      <path id="Path_11018" data-name="Path 11018" d="M24.585,55.888a.981.981,0,0,1-1.32-.425h0c-1.5-2.932-5.5-7.135-10.706-7.135-4.669,0-8.819,3.459-10.706,7.135a.981.981,0,0,1-1.746-.9c2.168-4.233,6.935-8.2,12.452-8.2,6.292,0,10.8,4.973,12.452,8.2a.981.981,0,0,1-.426,1.321Zm-7.205-.873a4.82,4.82,0,1,1-4.82-4.828A4.83,4.83,0,0,1,17.38,55.014Zm-1.962,0A2.858,2.858,0,1,0,12.56,57.88,2.865,2.865,0,0,0,15.418,55.014Z" transform="translate(0 -38.5)" fill="#4b9cd3"/>
    </g>
  </g>
</svg>
