<svg xmlns="http://www.w3.org/2000/svg" width="19" height="13.458" viewBox="0 0 19 13.458">
  <g id="_6351933_filter_filters_funnel_seo_sort_icon" data-name="6351933_filter_filters_funnel_seo_sort_icon" transform="translate(-2 -6)">
    <path id="Path_15720" data-name="Path 15720" d="M2,6.841A.853.853,0,0,1,2.864,6H20.136a.841.841,0,1,1,0,1.682H2.864A.853.853,0,0,1,2,6.841Z"/>
    <path id="Path_15721" data-name="Path 15721" d="M6.909,14.279a.853.853,0,0,1,.864-.841h9.5a.841.841,0,1,1,0,1.682h-9.5A.853.853,0,0,1,6.909,14.279Z" transform="translate(-1.023 -1.549)"/>
    <path id="Path_15722" data-name="Path 15722" d="M12.136,20.875a.841.841,0,1,0,0,1.682h2.591a.841.841,0,1,0,0-1.682Z" transform="translate(-1.932 -3.099)"/>
  </g>
</svg>
