<svg xmlns="http://www.w3.org/2000/svg" width="302.999" height="83.426" viewBox="0 0 302.999 83.426">
  <g id="final_color_logo1" transform="translate(-2.2 -3.2)">
    <path id="Path_10928" data-name="Path 10928" d="M151.624,31h-17.4l-6.44,11.862L121.572,31H104.739l13.9,21.917L104.4,73.818h16.833l7-11.41,7.343,11.41h16.607L137.615,51.561Z" transform="translate(13.261 3.607)" fill="#474d57"/>
    <path id="Path_10929" data-name="Path 10929" d="M147.845,32.6,135.757,50.337l-.678,1.017.678,1.017L148.523,71.8H136.209L129.317,61.3l-1.469-2.372L126.38,61.3,119.827,71.8H107.4l12.314-18.076.678-1.017-.678-.9L107.513,32.6h12.653l5.649,10.846,1.469,2.937,1.695-2.937L134.966,32.6h12.879" transform="translate(13.65 3.815)" fill="#fff"/>
    <path id="Path_10930" data-name="Path 10930" d="M2.2,74.044V31H17.791c5.31,0,9.6,1.243,12.653,3.841,3.163,2.6,4.632,6.1,4.632,10.733a13.522,13.522,0,0,1-2.034,7.569A12.852,12.852,0,0,1,27.28,58l8.7,15.929H24.569L17.678,59.809H12.933V73.931H2.2Zm16.155-33.78H12.933V51.223h5.536a6.311,6.311,0,0,0,4.293-1.356A5.136,5.136,0,0,0,24.23,45.8a5.533,5.533,0,0,0-1.582-4.067A6.2,6.2,0,0,0,18.355,40.264Z" transform="translate(0 3.607)" fill="#474d57"/>
    <path id="Path_10931" data-name="Path 10931" d="M45.41,74.108H34L55.352,30.5h.565L77.269,74.108H65.859l-3.05-6.553H48.348Zm6.1-13.9h8.134c-1.921-4.406-3.276-7.8-4.067-10.281l-1.808,4.519C52.867,57.049,52.076,58.97,51.511,60.212Z" transform="translate(4.126 3.542)" fill="#474d57"/>
    <path id="Path_10932" data-name="Path 10932" d="M88.961,74.044H74.5V31H88.848c7.343,0,13.218,2.034,17.737,5.988a20.083,20.083,0,0,1,6.666,15.478,19.917,19.917,0,0,1-6.666,15.478Q100.145,74.044,88.961,74.044Zm-.226-33.78H85.346V64.893h3.389c4.18,0,7.456-1.13,9.829-3.5a12.547,12.547,0,0,0,0-17.624C96.3,41.394,93.028,40.264,88.735,40.264Z" transform="translate(9.381 3.607)" fill="#474d57"/>
    <path id="Path_10933" data-name="Path 10933" d="M174.123,31h10.959V58.114a15.915,15.915,0,0,1-4.971,12.2c-3.276,3.05-7.8,4.519-13.67,4.519s-10.394-1.469-13.67-4.519a15.915,15.915,0,0,1-4.971-12.2V31h10.959V56.871a7.9,7.9,0,0,0,2.034,5.875,9.179,9.179,0,0,0,11.523,0c1.356-1.356,1.921-3.389,1.921-5.875V31Z" transform="translate(18.892 3.607)" fill="#00539b"/>
    <path id="Path_10934" data-name="Path 10934" d="M198.648,60.374h-3.389v13.67H184.3V31h14.348c5.31,0,9.6,1.243,12.653,3.728q4.745,3.728,4.745,10.846c0,4.745-1.582,8.36-4.745,10.959C208.251,59.131,204.071,60.374,198.648,60.374Zm.565-20.11h-3.954V51.223h3.954a6.311,6.311,0,0,0,4.293-1.356,5.187,5.187,0,0,0,1.582-4.067,5.533,5.533,0,0,0-1.582-4.067A5.837,5.837,0,0,0,199.213,40.264Z" transform="translate(23.628 3.607)" fill="#00539b"/>
    <path id="Path_10935" data-name="Path 10935" d="M226.155,41.28l-.113,8.134c-.113,5.875-.678,10.507-4.293,13.105a22.806,22.806,0,0,0,8.134,1.695,14.066,14.066,0,0,0,4.519-.678,9.177,9.177,0,0,0,3.276-2.147,9.624,9.624,0,0,0,2.147-3.615,19.421,19.421,0,0,0,.9-5.423l.113-10.959.113-7.908V31.9h1.582l6.327.113L233.5,16.2,216.1,33.259l10.055.113Z" transform="translate(27.754 1.687)" fill="#14a9a2"/>
    <path id="Path_10936" data-name="Path 10936" d="M247.818,3.2l-7.117,7,21.917,22.369,2.6,2.711h-3.728l-8.586-.113-.113,6.327-.113,13.783a24.39,24.39,0,0,1-2.034,10.168,19.932,19.932,0,0,1-5.2,7,23.537,23.537,0,0,1-15.139,5.084,24.434,24.434,0,0,1-7-1.017,25,25,0,0,1-6.1-2.711,12.213,12.213,0,0,1-3.5-3.276C220.93,94.936,267.024,92,267.363,58.9l.226-17.172.113-7.908,10.055.113Z" transform="translate(27.442)" fill="#5aa3d2"/>
  </g>
</svg>
