<svg xmlns="http://www.w3.org/2000/svg" width="18.655" height="20.809" viewBox="0 0 18.655 20.809">
  <path id="form" d="M3.292,15.038H9.063v1.626H3.292Zm0-1.585H9.063V11.827H3.292Zm0-3.211h9.958V8.616H3.292ZM18.655,20.809H17.029a2.967,2.967,0,0,0-5.934,0H9.469a4.6,4.6,0,0,1,2.331-4,3.008,3.008,0,1,1,4.524,0A4.6,4.6,0,0,1,18.655,20.809Zm-4.593-4.593a1.382,1.382,0,1,0-1.382-1.382A1.384,1.384,0,0,0,14.062,16.217ZM2.438,19.184H8.06a6.2,6.2,0,0,0-.216,1.626H2.438A2.441,2.441,0,0,1,0,18.371V2.439A2.441,2.441,0,0,1,2.438,0H10.72L16.5,5.806V10.9a4.581,4.581,0,0,0-1.621-.623V6.954h-2.89A2.441,2.441,0,0,1,9.546,4.516V1.626H2.438a.814.814,0,0,0-.813.813V18.371a.814.814,0,0,0,.813.813ZM11.985,5.329h1.747l-2.559-2.57V4.516A.814.814,0,0,0,11.985,5.329Zm0,0" transform="translate(0)" fill="#4b9cd3"/>
</svg>
