<svg xmlns="http://www.w3.org/2000/svg" width="197.333" height="54.333" viewBox="0 0 197.333 54.333"><defs><style>.a{fill:#474d57;}.b{fill:#fff;}.c{fill:#00539b;}.d{fill:#14a9a2;}.d,.e{fill-rule:evenodd;}.e{fill:#5aa3d2;}</style></defs><path class="a" d="M135.155,31H123.824l-4.194,7.726L115.584,31H104.621l9.05,14.274L104.4,58.886h10.963l4.562-7.431,4.783,7.431h10.816l-9.491-14.495Z" transform="translate(-29.204 -10.546)"/><path class="b" d="M133.741,32.6l-7.873,11.552-.441.662.441.662,8.314,12.655h-8.02l-4.488-6.843-.957-1.545-.957,1.545-4.267,6.843H107.4l8.02-11.772.441-.662-.441-.589L107.474,32.6h8.241l3.679,7.063.957,1.913,1.1-1.913,3.9-7.063h8.388" transform="translate(-29.997 -10.968)"/><path class="a" d="M2.2,59.033V31H12.354c3.458,0,6.254.809,8.241,2.5a8.437,8.437,0,0,1,3.017,6.99,8.806,8.806,0,0,1-1.324,4.93,8.37,8.37,0,0,1-3.752,3.164L24.2,58.959H16.768l-4.488-9.2H9.19v9.2H2.2Zm10.522-22H9.19V44.17H12.8a4.11,4.11,0,0,0,2.8-.883,3.345,3.345,0,0,0,.956-2.649,3.6,3.6,0,0,0-1.03-2.649A4.039,4.039,0,0,0,12.722,37.033Z" transform="translate(-2.2 -10.546)"/><path class="a" d="M41.431,58.9H34L47.906,30.5h.368L62.18,58.9H54.749l-1.987-4.267H43.344Zm3.973-9.05h5.3c-1.251-2.869-2.134-5.077-2.649-6.7L46.876,46.1C46.287,47.791,45.772,49.041,45.4,49.851Z" transform="translate(-10.603 -10.413)"/><path class="a" d="M83.918,59.033H74.5V31h9.344c4.783,0,8.609,1.324,11.552,3.9a13.079,13.079,0,0,1,4.341,10.08A12.971,12.971,0,0,1,95.4,55.06Q91.2,59.033,83.918,59.033Zm-.147-22H81.563v16.04h2.207a8.632,8.632,0,0,0,6.4-2.281,8.172,8.172,0,0,0,0-11.478C88.7,37.769,86.567,37.033,83.771,37.033Z" transform="translate(-21.304 -10.546)"/><path class="c" d="M164.943,31h7.137V48.658a10.365,10.365,0,0,1-3.237,7.946c-2.134,1.987-5.077,2.943-8.9,2.943s-6.769-.957-8.9-2.943a10.365,10.365,0,0,1-3.237-7.946V31h7.137V47.849a5.142,5.142,0,0,0,1.324,3.826,5.978,5.978,0,0,0,7.5,0,5.229,5.229,0,0,0,1.251-3.826V31Z" transform="translate(-40.672 -10.546)"/><path class="c" d="M193.644,50.13h-2.207v8.9H184.3V31h9.344c3.458,0,6.254.809,8.241,2.428a8.444,8.444,0,0,1,3.09,7.063,8.687,8.687,0,0,1-3.09,7.137C199.9,49.321,197.176,50.13,193.644,50.13Zm.368-13.1h-2.575V44.17h2.575a4.11,4.11,0,0,0,2.8-.883,3.378,3.378,0,0,0,1.03-2.649,3.6,3.6,0,0,0-1.03-2.649A3.8,3.8,0,0,0,194.012,37.033Z" transform="translate(-50.316 -10.546)"/><path class="d" d="M222.648,32.534l-.074,5.3c-.074,3.826-.441,6.843-2.8,8.535a14.853,14.853,0,0,0,5.3,1.1,9.161,9.161,0,0,0,2.943-.441,5.977,5.977,0,0,0,2.134-1.4,6.268,6.268,0,0,0,1.4-2.354,12.648,12.648,0,0,0,.589-3.532l.074-7.137.074-5.15v-1.03h1.03l4.12.074L227.431,16.2,216.1,27.31l6.548.074Z" transform="translate(-58.719 -6.635)"/><path class="e" d="M235.92,3.2l-4.635,4.562L245.559,22.33l1.692,1.766h-2.428l-5.592-.074-.074,4.12-.074,8.976a15.884,15.884,0,0,1-1.324,6.622,12.981,12.981,0,0,1-3.385,4.562,15.329,15.329,0,0,1-9.859,3.311,15.913,15.913,0,0,1-4.562-.662,16.283,16.283,0,0,1-3.973-1.766,7.954,7.954,0,0,1-2.281-2.134c4.709,15.893,34.728,13.98,34.949-7.578L248.8,28.29l.074-5.15,6.548.074Z" transform="translate(-58.085 -3.2)"/></svg>