<svg xmlns="http://www.w3.org/2000/svg" width="19.271" height="16.944" viewBox="0 0 19.271 16.944">
  <path id="tasklist" d="M17.983,10.5H8.857c-.689,0-.689-.478-.689-1.167s0-1.167.689-1.167h9.114c.689,0,.689.478.689,1.167s0,1.167-.689,1.167ZM11.191,4.668c-.689,0-.689-.478-.689-1.167s0-1.167.689-1.167h6.78c.689,0,.689.478.689,1.167s0,1.167-.689,1.167ZM0,4.563,1.645,3.046,3.5,4.9,8.274,0,9.919,1.645,3.5,8.064,0,4.563ZM8.857,14h9.114c.689,0,.689.478.689,1.167s0,1.167-.689,1.167H8.857c-.689,0-.689-.478-.689-1.167S8.169,14,8.857,14Z" transform="translate(0.361 0.356)" fill="#fff" stroke="#9dc858" stroke-width="0.5"/>
</svg>
