<svg xmlns="http://www.w3.org/2000/svg" width="50" height="50" viewBox="0 0 50 50">
  <g id="Group_16062" data-name="Group 16062" transform="translate(-343.174 -266.5)">
    <rect id="Rectangle_5269" data-name="Rectangle 5269" width="50" height="50" rx="4.38" transform="translate(343.174 266.5)" fill="#4b9cd3"/>
    <path id="Path_15543" data-name="Path 15543" d="M23.627,137.91a3.752,3.752,0,0,1,2.653,6.378H26a6.491,6.491,0,0,1,1.637,1.129,5.644,5.644,0,0,1,1.637,4.007.677.677,0,0,1-.734.677H18.6a.677.677,0,0,1-.734-.677,5.818,5.818,0,0,1,3.273-5.136h0a3.725,3.725,0,0,1-1.129-2.653,3.781,3.781,0,0,1,1.129-2.653A3.668,3.668,0,0,1,23.627,137.91Z" transform="translate(353.354 154.607)" fill="#2c3e50"/>
    <path id="Path_15544" data-name="Path 15544" d="M20.324,137.91a3.669,3.669,0,0,1,2.653,1.072,3.781,3.781,0,0,1,1.129,2.653,3.725,3.725,0,0,1-1.129,2.653h0a5.819,5.819,0,0,1,3.273,5.136.677.677,0,0,1-.734.677h-10.1a.677.677,0,0,1-.734-.677,5.644,5.644,0,0,1,1.637-4.007,7.393,7.393,0,0,1,1.58-1.129h0a3.727,3.727,0,0,1,2.653-6.378Z" transform="translate(338.541 154.607)" fill="#2c3e50"/>
    <path id="Path_15545" data-name="Path 15545" d="M19.65,138.339a.706.706,0,0,1,1.411,0v1.242a2.708,2.708,0,0,1,1.242.677h0a2.935,2.935,0,0,1,.79,1.919,3.047,3.047,0,0,1-.282,1.242L24,144.6a.734.734,0,0,1-1.016,1.016l-1.129-1.129a2.709,2.709,0,0,1-1.467.4,2.6,2.6,0,0,1-1.467-.4l-1.129,1.129a.621.621,0,0,1-.959,0,.734.734,0,0,1,0-1.016l1.129-1.129a2.6,2.6,0,0,1-.339-1.3,2.935,2.935,0,0,1,.79-1.919,2.709,2.709,0,0,1,1.242-.677v-1.242Zm-.282,4.91h0a1.354,1.354,0,0,0,.959.339,1.128,1.128,0,0,0,.9-.4,1.242,1.242,0,0,0,.4-.9,1.355,1.355,0,0,0-1.3-1.3h0a1.355,1.355,0,0,0-.959.4,1.3,1.3,0,0,0-.339.9,1.411,1.411,0,0,0,.339.96Z" transform="translate(347.567 153.445)" fill="#2c3e50"/>
    <path id="Path_15546" data-name="Path 15546" d="M24.351,141.724a5.819,5.819,0,0,1,3.273,5.136.734.734,0,0,1-.734.734H17.014a.734.734,0,0,1-.734-.734,5.818,5.818,0,0,1,3.273-5.136h-.282a3.781,3.781,0,0,1-1.072-2.653,3.668,3.668,0,0,1,1.072-2.653,3.781,3.781,0,0,1,2.653-1.129,3.726,3.726,0,0,1,2.653,1.129,3.5,3.5,0,0,1,1.129,2.653,3.556,3.556,0,0,1-1.129,2.653h-.226Z" transform="translate(345.971 142.441)" fill="#2c3e50"/>
    <path id="Path_15547" data-name="Path 15547" d="M23.718,137.832a4.289,4.289,0,0,0-3.048-1.242h0a4.233,4.233,0,0,0-2.991,1.242,4.289,4.289,0,0,0-1.129,2.258h8.184A4.29,4.29,0,0,0,23.718,137.832Z" transform="translate(347.224 148.478)" fill="#9dc858"/>
    <path id="Path_15548" data-name="Path 15548" d="M19.184,140.195h0a2.539,2.539,0,0,0,1.693-.677h0a2.54,2.54,0,0,0,.677-1.637,2.314,2.314,0,0,0-2.37-2.37,2.314,2.314,0,0,0-2.314,2.37,2.314,2.314,0,0,0,2.314,2.314Z" transform="translate(348.71 143.462)" fill="#ffe9c5"/>
    <path id="Path_15549" data-name="Path 15549" d="M25.318,140.482a4.234,4.234,0,0,0-2.991-1.242h0a4.233,4.233,0,0,0-4.176,3.5H26.5a4.854,4.854,0,0,0-1.185-2.258Z" transform="translate(354.654 160.784)" fill="#14a9a2"/>
    <path id="Path_15550" data-name="Path 15550" d="M22.477,138.837a2.385,2.385,0,0,0-3.33,0,2.54,2.54,0,0,0-.677,1.637,2.314,2.314,0,0,0,.677,1.637,2.37,2.37,0,0,0,1.693.734h0a2.315,2.315,0,0,0,1.637-.734h0a2.314,2.314,0,0,0,.677-1.637,2.54,2.54,0,0,0-.677-1.637Z" transform="translate(356.141 155.769)" fill="#ffe9c5"/>
    <path id="Path_15551" data-name="Path 15551" d="M22.108,140.482a4.064,4.064,0,0,0-2.991-1.242h0a4.234,4.234,0,0,0-2.991,1.242,4.853,4.853,0,0,0-1.185,2.257h8.353a4.007,4.007,0,0,0-1.185-2.258Z" transform="translate(339.748 160.784)" fill="#00539b"/>
    <path id="Path_15552" data-name="Path 15552" d="M19.251,138.837a2.315,2.315,0,0,0-3.951,1.637,2.427,2.427,0,0,0,2.314,2.37h0a2.145,2.145,0,0,0,1.637-.734h0a2.258,2.258,0,0,0,0-3.273Z" transform="translate(341.419 155.769)" fill="#ffe9c5"/>
  </g>
</svg>
