<svg xmlns="http://www.w3.org/2000/svg" width="16" height="16" viewBox="0 0 16 16">
  <g id="_5" data-name="5" transform="translate(-2 -2)">
    <path id="Path_11024" data-name="Path 11024" d="M10,2a8,8,0,1,0,8,8A8,8,0,0,0,10,2Zm0,14.4A6.4,6.4,0,1,1,16.4,10,6.4,6.4,0,0,1,10,16.4Z" fill="#dec400"/>
    <path id="Path_11025" data-name="Path 11025" d="M11.188,6a.8.8,0,0,0-.8.8v3.672L8.22,12.632A.8.8,0,1,0,9.348,13.76l2.4-2.4a.8.8,0,0,0,.24-.56v-4A.8.8,0,0,0,11.188,6Z" transform="translate(-1.188 -0.8)" fill="#dec400"/>
  </g>
</svg>
