<svg xmlns="http://www.w3.org/2000/svg" width="59.985" height="48.336" viewBox="0 0 59.985 48.336">
  <g id="Group_15894" data-name="Group 15894" transform="translate(0 1.997)">
    <g id="signature-with-a-pen" transform="translate(0 5.254)">
      <path id="Path_10937" data-name="Path 10937" d="M32.54,52.6a8.888,8.888,0,0,0-2.621-1.857,6.842,6.842,0,0,0-2.742-.494c-.075,0-.163,0-.25,0a3.553,3.553,0,0,0-2.759-2.334,5.583,5.583,0,0,0-4.306,1.143c.09-.511.238-1.118.348-1.556a10.025,10.025,0,0,0,.442-4.235,2.437,2.437,0,0,0-2.222-1.96c-2.832-.158-5.147,1.366-7.187,2.745C9.1,45.489,7.727,46.352,6.36,45.864c-1.668-.593-1.836-5.108-1.033-9.129C6.044,33.112,7.379,26.367,10.8,23.3c1.152-1.031,2.82-2.147,4.192-1.6,1.612.632,2.944,3.287,3.241,6.45a2.431,2.431,0,1,0,4.841-.455c-.481-5.154-2.9-9.185-6.3-10.525-2.04-.793-5.283-1.007-9.215,2.511C3.277,23.511,1.7,30,.552,35.789-.022,38.677-1.42,48.261,4.726,50.447c3.744,1.335,6.786-.725,9.229-2.373.447-.3.887-.6,1.315-.863-.406,1.763-.659,3.649.406,5.239,1.588,2.388,3.832,2.648,6.667.78.109-.071.236-.153.355-.236a3.3,3.3,0,0,0,1.571,1.568,6.428,6.428,0,0,0,2.786.545,3.859,3.859,0,0,1,.885.075,4.222,4.222,0,0,1,1.252.946,15.467,15.467,0,0,0,1.337,1.157,2.431,2.431,0,0,0,2.913-3.892A11.488,11.488,0,0,1,32.54,52.6Z" transform="translate(0 -16.686)" fill="#4b9cd3"/>
    </g>
    <g id="signature" transform="matrix(0.914, -0.407, 0.407, 0.914, 19.786, 10.055)">
      <g id="Group_15893" data-name="Group 15893" transform="translate(0 0)">
        <g id="Group_15892" data-name="Group 15892" transform="translate(0)">
          <path id="Path_10939" data-name="Path 10939" d="M27.446,2.382a7.2,7.2,0,0,0-10.77.083L13.611,5.8c-.038.035-.084.048-.12.088s-.048.089-.08.131L3.132,17.222a11.992,11.992,0,0,0-3.1,8.053L0,30.131a2.049,2.049,0,0,0,1.975,2.152l4.455-.034a10.113,10.113,0,0,0,7.395-3.379L27.367,14.114A8.85,8.85,0,0,0,27.446,2.382ZM11.035,25.824a6.261,6.261,0,0,1-4.576,2.09l-2.466.019.018-2.687a7.43,7.43,0,0,1,1.916-4.984l8.96-9.763,5.106,5.565Zm13.54-14.753-1.749,1.905L17.719,7.412l1.747-1.9a3.438,3.438,0,0,1,5.143-.04A4.227,4.227,0,0,1,24.574,11.071Z" transform="translate(0)" fill="#4b9cd3"/>
        </g>
      </g>
    </g>
  </g>
</svg>
