<svg xmlns="http://www.w3.org/2000/svg" width="22" height="21.981" viewBox="0 0 22 21.981">
  <path id="favorite" d="M13.96,2.659l2.523,5.484a1.16,1.16,0,0,0,.768.658l5.7.878a.993.993,0,0,1,.658,1.755l-4.168,4.278a1.531,1.531,0,0,0-.329.987l.987,5.923a1.1,1.1,0,0,1-1.536,1.207l-5.155-2.852a.823.823,0,0,0-.987,0L7.269,23.829a1.059,1.059,0,0,1-1.536-1.207L6.721,16.7a1.106,1.106,0,0,0-.329-.987L2.224,11.435A1.14,1.14,0,0,1,2.882,9.57l5.7-.878a.941.941,0,0,0,.768-.658L11.876,2.55A1.19,1.19,0,0,1,13.96,2.659Z" transform="translate(-1.956 -1.987)" fill="#e5dde2"/>
</svg>
