<svg xmlns="http://www.w3.org/2000/svg" width="25.3" height="25.3" viewBox="0 0 25.3 25.3">
  <path id="_08_Document_Setting_Document_Engineering" data-name="08 Document Setting, Document, Engineering" d="M28.672,9,23.8,4.128A.443.443,0,0,0,23.486,4h-9.3a2.214,2.214,0,0,0-2.214,2.214V8.429H10.643a.443.443,0,0,0-.443.443v2.055c-.164.053-.323.115-.483.182L8.278,9.669a.443.443,0,0,0-.624,0L5.461,11.861a.433.433,0,0,0,0,.624L6.817,13.84c-.093.186-.173.376-.248.567H4.443A.443.443,0,0,0,4,14.85v3.1a.443.443,0,0,0,.443.443H6.569c.062.168.133.332.208.492l-1.506,1.5a.444.444,0,0,0,0,.624l2.214,2.214a.443.443,0,0,0,.624,0l1.554-1.55a5.729,5.729,0,0,0,.558.213v2.042a.443.443,0,0,0,.443.443h1.329v2.214A2.214,2.214,0,0,0,14.208,28.8H26.586A2.214,2.214,0,0,0,28.8,26.586V9.314A.443.443,0,0,0,28.672,9ZM11.086,23.486V21.542a.443.443,0,0,0-.332-.443,4.769,4.769,0,0,1-1-.368.443.443,0,0,0-.518.08L7.782,22.272,6.214,20.7,7.64,19.283a.443.443,0,0,0,.071-.527,4.8,4.8,0,0,1-.394-.934.443.443,0,0,0-.443-.314H4.886V15.293h2a.443.443,0,0,0,.443-.314,4.792,4.792,0,0,1,.443-1,.443.443,0,0,0-.071-.531l-1.3-1.28,1.585-1.563,1.329,1.329a.443.443,0,0,0,.509.084,4.925,4.925,0,0,1,.934-.345.443.443,0,0,0,.332-.443V9.314h.886v3.574a3.543,3.543,0,0,0,0,7.024v3.574Zm.886-9.7v5.235a2.657,2.657,0,0,1,0-5.235ZM23.929,5.51,27.29,8.871H23.929Zm3.986,21.076a1.329,1.329,0,0,1-1.329,1.329h-12.4a1.329,1.329,0,0,1-1.329-1.329V6.214a1.329,1.329,0,0,1,1.329-1.329h8.857V9.314a.443.443,0,0,0,.443.443h4.429ZM15.071,15.957H25.7v.886H15.071Zm0-2.214H25.7v.886H15.071Zm0,4.429H25.7v.886H15.071Z" transform="translate(-3.75 -3.75)" fill="#4b9cd3" stroke="#4b9cd3" stroke-width="0.5"/>
</svg>
