<svg xmlns="http://www.w3.org/2000/svg" width="15.615" height="20.5" viewBox="0 0 15.615 20.5">
  <g id="education" transform="translate(-69.787 -9.706)">
    <path id="Path_15720" data-name="Path 15720" d="M83.925,29.344H73.618c-.772,0-1.544,0-2.316,0a.64.64,0,0,1-.658-.666V12.748c0-.52-.012-1.044,0-1.564a.623.623,0,0,1,.618-.622H83.624c.309,0,.622-.02.821.284a1.072,1.072,0,0,1,.1.618V28.727a.631.631,0,0,1-.618.618c-.39.012-.394.622,0,.609a1.255,1.255,0,0,0,1.227-1.3V11.436a1.6,1.6,0,0,0-.183-.894,1.248,1.248,0,0,0-1.052-.585H71.4c-.061,0-.126,0-.187,0a1.242,1.242,0,0,0-1.154,1.032,3.468,3.468,0,0,0-.016.544V26.842c0,.618,0,1.235,0,1.853a1.25,1.25,0,0,0,1.235,1.259c.223,0,.451,0,.674,0H83.925A.3.3,0,0,0,83.925,29.344Z" transform="translate(0 0)" fill="#4b9cd3" stroke="#4b9cd3" stroke-width="0.5"/>
    <path id="Path_15721" data-name="Path 15721" d="M110.476,46.724h-9.059c-.045,0-.094,0-.139,0-.192-.011-.274-.153-.274-.333,0-.493,0-.99,0-1.484,0-.382-.026-.776,0-1.159.023-.314.312-.275.53-.275h8.642c.188,0,.477-.05.56.18a1.225,1.225,0,0,1,.015.371v2.325c0,.187-.056.367-.274.375-.361.015-.365.589,0,.574a.863.863,0,0,0,.835-.853c0-.145,0-.291,0-.436v-1.8c0-.153,0-.306,0-.459a.859.859,0,0,0-.786-.853c-.169-.015-.346,0-.515,0h-6.62c-.7,0-1.391-.008-2.086,0a.865.865,0,0,0-.654.283,1.006,1.006,0,0,0-.214.7v1.679c0,.44-.1,1.067.2,1.426a1.042,1.042,0,0,0,.906.3h8.935A.283.283,0,0,0,110.476,46.724Zm-6.766,3.437h7.311a.287.287,0,0,0,0-.574H103.71a.287.287,0,0,0,0,.574Zm-.823-2.225L100.9,49.954h.4l-.808-.822c-.256-.26-.654.145-.4.405l.808.822a.28.28,0,0,0,.4,0l1.985-2.019c.259-.264-.139-.669-.4-.405Zm.823,4.994h7.311a.287.287,0,0,0,0-.574H103.71a.287.287,0,0,0,0,.574Zm-.823-2.225L100.9,52.723h.4l-.808-.822c-.256-.26-.654.145-.4.405l.808.822a.28.28,0,0,0,.4,0l1.985-2.019c.259-.264-.139-.669-.4-.405Zm.823,4.994h7.311a.287.287,0,0,0,0-.574H103.71a.287.287,0,0,0,0,.574Zm-.823-2.225L100.9,55.491h.4l-.808-.822c-.256-.26-.654.145-.4.405l.808.822a.28.28,0,0,0,.4,0l1.985-2.019c.259-.264-.139-.669-.4-.405Zm.823,4.994h7.311a.287.287,0,0,0,0-.574H103.71a.287.287,0,0,0,0,.574Zm-.823-2.225L100.9,58.259h.4l-.808-.822c-.256-.26-.654.145-.4.405l.808.822a.28.28,0,0,0,.4,0l1.985-2.019c.259-.264-.139-.669-.4-.405Z" transform="translate(-28.374 -31.178)" fill="#4b9cd3" stroke="#4b9cd3" stroke-width="0.5"/>
  </g>
</svg>
