<svg xmlns="http://www.w3.org/2000/svg" width="50" height="50" viewBox="0 0 50 50">
  <g id="Group_16059" data-name="Group 16059" transform="translate(-348.62 -173.679)">
    <rect id="Rectangle_4785" data-name="Rectangle 4785" width="50" height="50" rx="4.38" transform="translate(348.62 173.679)" fill="#f47f20"/>
    <g id="Group_16303" data-name="Group 16303">
      <rect id="Rectangle_5276" data-name="Rectangle 5276" width="10" height="9" rx="3" transform="translate(376 186.679)" fill="#ffd55e"/>
      <rect id="Rectangle_5277" data-name="Rectangle 5277" width="8" height="9" rx="3" transform="translate(377 201.679)" fill="#9dc858"/>
      <rect id="Rectangle_5278" data-name="Rectangle 5278" width="8" height="9" rx="3" transform="translate(363 201.679)" fill="#4b9cd3"/>
      <path id="Path_15735" data-name="Path 15735" d="M10.167,0H3.292A2.3,2.3,0,0,0,1,2.292v8.021A2.294,2.294,0,0,0,3.292,12.6h6.875a2.294,2.294,0,0,0,2.292-2.292V2.292A2.3,2.3,0,0,0,10.167,0ZM3.292,4.583H7.875V5.729H3.292Zm6.875,4.583H3.292V8.021h6.875ZM23.917,0H17.042A2.3,2.3,0,0,0,14.75,2.292v8.021A2.294,2.294,0,0,0,17.042,12.6h6.875a2.294,2.294,0,0,0,2.292-2.292V2.292A2.3,2.3,0,0,0,23.917,0ZM17.042,4.583h4.583V5.729H17.042Zm6.875,4.583H17.042V8.021h6.875ZM10.167,14.9H3.292A2.3,2.3,0,0,0,1,17.188v8.021A2.294,2.294,0,0,0,3.292,27.5h6.875a2.294,2.294,0,0,0,2.292-2.292V17.188A2.3,2.3,0,0,0,10.167,14.9ZM3.292,19.479H7.875v1.146H3.292Zm6.875,4.583H3.292V22.917h6.875ZM23.917,14.9H17.042a2.3,2.3,0,0,0-2.292,2.292v8.021A2.294,2.294,0,0,0,17.042,27.5h6.875a2.294,2.294,0,0,0,2.292-2.292V17.188A2.3,2.3,0,0,0,23.917,14.9Zm-6.875,4.583h4.583v1.146H17.042Zm6.875,4.583H17.042V22.917h6.875Z" transform="translate(360.396 184.929)" fill="#fff"/>
      <path id="Path_15736" data-name="Path 15736" d="M10.167,0H3.292A2.3,2.3,0,0,0,1,2.292v8.021A2.294,2.294,0,0,0,3.292,12.6h6.875a2.294,2.294,0,0,0,2.292-2.292V2.292A2.3,2.3,0,0,0,10.167,0Zm13.75,0H17.042A2.3,2.3,0,0,0,14.75,2.292v8.021A2.294,2.294,0,0,0,17.042,12.6h6.875a2.294,2.294,0,0,0,2.292-2.292V2.292A2.3,2.3,0,0,0,23.917,0ZM10.167,14.9H3.292A2.3,2.3,0,0,0,1,17.188v8.021A2.294,2.294,0,0,0,3.292,27.5h6.875a2.294,2.294,0,0,0,2.292-2.292V17.188A2.3,2.3,0,0,0,10.167,14.9Zm13.75,0H17.042a2.3,2.3,0,0,0-2.292,2.292v8.021A2.294,2.294,0,0,0,17.042,27.5h6.875a2.294,2.294,0,0,0,2.292-2.292V17.188A2.3,2.3,0,0,0,23.917,14.9Z" transform="translate(360.396 184.929)" fill="none" stroke="#474c55" stroke-width="1"/>
    </g>
  </g>
</svg>
