<svg xmlns="http://www.w3.org/2000/svg" width="50" height="50.001" viewBox="0 0 50 50.001">
  <g id="Group_16063" data-name="Group 16063" transform="translate(-332.53 -243.529)">
    <rect id="Rectangle_4751" data-name="Rectangle 4751" width="50" height="50.001" rx="4.38" transform="translate(332.53 243.529)" fill="#9dc858"/>
    <path id="Path_15710" data-name="Path 15710" d="M48.983,104.1H53.7a.748.748,0,0,1,.748-.748h8.92a.691.691,0,0,1,.691.748h4.719a2.3,2.3,0,0,1,1.669.691h0a2.3,2.3,0,0,1,.691,1.611v24.8a2.475,2.475,0,0,1-.691,1.669h0a2.244,2.244,0,0,1-1.611.633H48.983a2.3,2.3,0,0,1-1.611-.691h0a2.187,2.187,0,0,1-.691-1.669v-24.8a2.359,2.359,0,0,1,2.3-2.3Z" transform="translate(298.223 149.904)" fill="#2c3e50"/>
    <path id="Path_15711" data-name="Path 15711" d="M50.087,104.22H47.44v20.89H63.15V104.22h-2.7a.691.691,0,0,1-.691.748H50.663a.748.748,0,0,1-.748-.748Z" transform="translate(301.837 154.041)" fill="#e6eef0"/>
    <path id="Path_15712" data-name="Path 15712" d="M62.774,105.182h3.4a.748.748,0,0,1,.748.748V128.2a.748.748,0,0,1-.748.748H48.905a.748.748,0,0,1-.748-.748V105.873a.748.748,0,0,1,.748-.748h3.4V103.8H47.582a.863.863,0,0,0-.575,0,.921.921,0,0,0,0,.633v24.8a1.208,1.208,0,0,0,0,.633h0a.691.691,0,0,0,.575,0h19.8a.863.863,0,0,0,.575,0h0a.863.863,0,0,0,0-.633v-24.8a.863.863,0,0,0,0-.633h0a1.208,1.208,0,0,0-.633,0H62.774Z" transform="translate(299.509 151.813)" fill="#f47e28"/>
    <path id="Path_15713" data-name="Path 15713" d="M48.15,103.61v2.82h7.481v-2.82Z" transform="translate(305.213 151.14)" fill="#e5dde2"/>
    <path id="Path_15714" data-name="Path 15714" d="M54.783,106.542a.719.719,0,0,1,0,1.439H49.028a.748.748,0,0,1-.748-.748.691.691,0,0,1,.748-.691Z" transform="translate(305.831 165.07)" fill="#2c3e50"/>
    <path id="Path_15715" data-name="Path 15715" d="M56.757,105.852a.719.719,0,0,1,0,1.439H48.988a.748.748,0,0,1-.748-.748.691.691,0,0,1,.748-.691Z" transform="translate(305.641 161.789)" fill="#2c3e50"/>
    <path id="Path_15716" data-name="Path 15716" d="M56.757,105.162a.719.719,0,0,1,0,1.439H48.988a.748.748,0,0,1-.748-.748.691.691,0,0,1,.748-.691Z" transform="translate(305.641 158.508)" fill="#2c3e50"/>
    <path id="Path_15717" data-name="Path 15717" d="M48.518,105.162a.691.691,0,0,1,.748.691.748.748,0,0,1-.748.748h0a.748.748,0,0,1-.748-.748.691.691,0,0,1,.748-.691Z" transform="translate(303.406 158.508)" fill="#2c3e50"/>
    <path id="Path_15718" data-name="Path 15718" d="M48.661,105.85a.691.691,0,0,1,.575.863.748.748,0,0,1-.748.748h0a.748.748,0,0,1-.748-.748.691.691,0,0,1,.748-.691Z" transform="translate(303.264 161.791)" fill="#2c3e50"/>
    <path id="Path_15719" data-name="Path 15719" d="M48.518,106.542a.691.691,0,0,1,.748.691.748.748,0,0,1-.748.748h0a.748.748,0,0,1-.748-.748.691.691,0,0,1,.748-.691Z" transform="translate(303.406 165.07)" fill="#2c3e50"/>
  </g>
</svg>
