<svg xmlns="http://www.w3.org/2000/svg" width="32" height="32" viewBox="0 0 32 32"><defs><style>.a{fill:#510c5d;}.b{fill:#fff;}</style></defs><rect class="a" width="32" height="32" rx="4"/><path class="b" d="M12,2a8.015,8.015,0,0,0-8,8v1.9A2.9,2.9,0,0,0,3,14a2.883,2.883,0,0,0,1.943,2.613C6.244,19.723,8.85,22,12,22s5.756-2.277,7.057-5.387A2.883,2.883,0,0,0,21,14a2.9,2.9,0,0,0-1-2.1V10A8.015,8.015,0,0,0,12,2Zm0,2a5.979,5.979,0,0,1,5.685,4.088A2.939,2.939,0,0,0,17,8H7a2.94,2.94,0,0,0-.686.088A5.98,5.98,0,0,1,12,4ZM7,10H17a.984.984,0,0,1,1,1v1.852l.5.287A.965.965,0,0,1,19,14a.978.978,0,0,1-.861.981l-.586.082-.213.551C16.309,18.3,14.258,20,12,20s-4.309-1.7-5.34-4.387l-.213-.551-.586-.082A.978.978,0,0,1,5,14a.964.964,0,0,1,.5-.861l.5-.287V11A.984.984,0,0,1,7,10Z" transform="translate(4 4)"/></svg>