<svg xmlns="http://www.w3.org/2000/svg" width="25.014" height="26.902" viewBox="0 0 25.014 26.902">
  <path id="user_1_" data-name="user (1)" d="M19.882,10a5.186,5.186,0,1,0,5.167,5.186A5.184,5.184,0,0,0,19.882,10Zm0,.943a4.243,4.243,0,1,1-4.224,4.243A4.226,4.226,0,0,1,19.882,10.941Zm-2.81,10.371A7.08,7.08,0,0,0,10,28.411v4.258a.471.471,0,0,0,.471.471h11.88a1.479,1.479,0,0,1,.258-.477,1.479,1.479,0,0,1-.935-.466H14.714V28.406a.471.471,0,1,0-.943,0V32.2H10.943V28.411a6.119,6.119,0,0,1,6.129-6.156h5.657a6.092,6.092,0,0,1,3.751,1.284,1.313,1.313,0,0,1,.877-.341h.164a7.021,7.021,0,0,0-4.792-1.886Zm10.285,2.83a.471.471,0,0,0-.471.471v.842a5.078,5.078,0,0,0-.845.348l-.593-.593a.471.471,0,0,0-.667,0l-1.455,1.455a.471.471,0,0,0,0,.667l.593.593a5.083,5.083,0,0,0-.35.845h-.84a.471.471,0,0,0-.471.471V31.3a.471.471,0,0,0,.471.471h.842a5.077,5.077,0,0,0,.346.847l-.591.593a.471.471,0,0,0,0,.667l1.455,1.455a.471.471,0,0,0,.667,0l.593-.595a5.064,5.064,0,0,0,.845.35v.842a.471.471,0,0,0,.471.471h2.057a.471.471,0,0,0,.471-.471v-.843a5.1,5.1,0,0,0,.847-.346l.593.593a.471.471,0,0,0,.667,0l1.455-1.455a.471.471,0,0,0,0-.667l-.595-.595a5.064,5.064,0,0,0,.35-.845h.842a.471.471,0,0,0,.471-.471V29.242a.471.471,0,0,0-.471-.471H33.2a5.074,5.074,0,0,0-.346-.845l.593-.593a.471.471,0,0,0,0-.667l-1.455-1.455a.471.471,0,0,0-.667,0l-.595.595a5.071,5.071,0,0,0-.845-.352v-.84a.471.471,0,0,0-.471-.471Zm.471.943h1.114v.678a.471.471,0,0,0,.366.459,4.162,4.162,0,0,1,1.287.532.472.472,0,0,0,.584-.064l.479-.479.788.788-.477.475a.471.471,0,0,0-.066.584,4.15,4.15,0,0,1,.528,1.287.471.471,0,0,0,.46.368h.68v1.114h-.678a.471.471,0,0,0-.46.366,4.161,4.161,0,0,1-.532,1.287.471.471,0,0,0,.066.584l.479.479-.788.788-.477-.477a.471.471,0,0,0-.582-.066,4.165,4.165,0,0,1-1.289.528.471.471,0,0,0-.368.46v.68H27.828V34.78a.471.471,0,0,0-.366-.46,4.162,4.162,0,0,1-1.287-.532.471.471,0,0,0-.584.066l-.477.479-.788-.788.475-.477a.471.471,0,0,0,.068-.582A4.159,4.159,0,0,1,24.34,31.2a.472.472,0,0,0-.46-.368H23.2V29.713h.678a.471.471,0,0,0,.459-.366,4.161,4.161,0,0,1,.532-1.287.471.471,0,0,0-.064-.584L24.325,27l.788-.788.475.475a.471.471,0,0,0,.584.068,4.15,4.15,0,0,1,1.287-.528.471.471,0,0,0,.368-.46Zm.558,2.829a2.357,2.357,0,1,0,2.355,2.355A2.366,2.366,0,0,0,28.386,27.914Zm0,.943a1.414,1.414,0,1,1-1.414,1.412A1.414,1.414,0,0,1,28.386,28.857Z" transform="translate(-9.75 -9.748)" fill="#4b9cd3" stroke="#4b9cd3" stroke-width="0.5"/>
</svg>
